<svg width="24" height="25" viewBox="0 0 24 25" fill="none" xmlns="http://www.w3.org/2000/svg">
<path d="M14.43 19.4867C14.24 19.4867 14.05 19.4167 13.9 19.2667C13.61 18.9767 13.61 18.4967 13.9 18.2067L19.44 12.6667L13.9 7.12668C13.61 6.83668 13.61 6.35668 13.9 6.06668C14.19 5.77668 14.67 5.77668 14.96 6.06668L21.03 12.1367C21.32 12.4267 21.32 12.9067 21.03 13.1967L14.96 19.2667C14.81 19.4167 14.62 19.4867 14.43 19.4867Z" fill="white"/>
<path d="M20.33 13.4167H3.5C3.09 13.4167 2.75 13.0767 2.75 12.6667C2.75 12.2567 3.09 11.9167 3.5 11.9167H20.33C20.74 11.9167 21.08 12.2567 21.08 12.6667C21.08 13.0767 20.74 13.4167 20.33 13.4167Z" fill="white"/>
</svg>
