<svg width="22" height="21" viewBox="0 0 22 21" fill="none" xmlns="http://www.w3.org/2000/svg">
<g clip-path="url(#clip0_69_30)">
<path d="M10.6367 8.30075C10.7799 7.87106 11.3867 7.87106 11.5299 8.30075L12.3698 10.8229C12.5546 11.3773 12.8661 11.8811 13.2795 12.2942C13.6928 12.7074 14.1968 13.0185 14.7513 13.2031L17.2721 14.0429C17.7018 14.1862 17.7018 14.7929 17.2721 14.9362L14.75 15.776C14.1956 15.9609 13.6918 16.2723 13.2787 16.6857C12.8655 17.0991 12.5543 17.603 12.3698 18.1575L11.5299 20.6784C11.4991 20.7724 11.4392 20.8544 11.359 20.9125C11.2788 20.9706 11.1823 21.0018 11.0833 21.0018C10.9843 21.0018 10.8878 20.9706 10.8076 20.9125C10.7274 20.8544 10.6676 20.7724 10.6367 20.6784L9.79686 18.1562C9.61213 17.6019 9.30087 17.0983 8.88774 16.6851C8.4746 16.272 7.97094 15.9607 7.41665 15.776L4.89452 14.9362C4.80043 14.9053 4.71849 14.8455 4.66041 14.7653C4.60232 14.6851 4.57104 14.5886 4.57104 14.4895C4.57104 14.3905 4.60232 14.294 4.66041 14.2138C4.71849 14.1336 4.80043 14.0738 4.89452 14.0429L7.41665 13.2031C7.97094 13.0184 8.4746 12.7071 8.88774 12.294C9.30087 11.8808 9.61213 11.3772 9.79686 10.8229L10.6367 8.30075ZM5.60676 1.66142C5.62543 1.60503 5.6614 1.55596 5.70955 1.52119C5.7577 1.48641 5.81559 1.46769 5.87499 1.46769C5.93439 1.46769 5.99227 1.48641 6.04043 1.52119C6.08858 1.55596 6.12454 1.60503 6.14322 1.66142L6.64712 3.17444C6.87238 3.84892 7.40103 4.37757 8.07551 4.60283L9.58853 5.10673C9.64492 5.12541 9.69399 5.16137 9.72876 5.20953C9.76354 5.25768 9.78226 5.31557 9.78226 5.37496C9.78226 5.43436 9.76354 5.49225 9.72876 5.5404C9.69399 5.58855 9.64492 5.62452 9.58853 5.64319L8.07551 6.1471C7.74266 6.25757 7.44021 6.44422 7.19223 6.6922C6.94425 6.94018 6.75759 7.24264 6.64712 7.57548L6.14322 9.08851C6.12454 9.14489 6.08858 9.19396 6.04043 9.22874C5.99227 9.26352 5.93439 9.28224 5.87499 9.28224C5.81559 9.28224 5.7577 9.26352 5.70955 9.22874C5.6614 9.19396 5.62543 9.14489 5.60676 9.08851L5.10285 7.57548C4.99239 7.24264 4.80573 6.94018 4.55775 6.6922C4.30977 6.44422 4.00731 6.25757 3.67447 6.1471L2.16145 5.64319C2.10506 5.62452 2.05599 5.58855 2.02121 5.5404C1.98643 5.49225 1.96771 5.43436 1.96771 5.37496C1.96771 5.31557 1.98643 5.25768 2.02121 5.20953C2.05599 5.16137 2.10506 5.12541 2.16145 5.10673L3.67447 4.60283C4.00731 4.49236 4.30977 4.30571 4.55775 4.05772C4.80573 3.80974 4.99239 3.50729 5.10285 3.17444L5.60676 1.66142ZM14.8112 0.295536C14.824 0.258461 14.8481 0.226312 14.8801 0.203559C14.9121 0.180806 14.9503 0.168579 14.9896 0.168579C15.0288 0.168579 15.0671 0.180806 15.099 0.203559C15.131 0.226312 15.1551 0.258461 15.168 0.295536L15.5039 1.30335C15.6536 1.75387 16.0065 2.10673 16.457 2.25647L17.4648 2.59241C17.5019 2.60526 17.5341 2.62935 17.5568 2.66132C17.5796 2.69329 17.5918 2.73156 17.5918 2.7708C17.5918 2.81004 17.5796 2.8483 17.5568 2.88027C17.5341 2.91224 17.5019 2.93633 17.4648 2.94918L16.457 3.28512C16.2352 3.35934 16.0336 3.48406 15.8682 3.64946C15.7028 3.81486 15.5781 4.01642 15.5039 4.23824L15.168 5.24606C15.1551 5.28313 15.131 5.31528 15.099 5.33803C15.0671 5.36079 15.0288 5.37301 14.9896 5.37301C14.9503 5.37301 14.9121 5.36079 14.8801 5.33803C14.8481 5.31528 14.824 5.28313 14.8112 5.24606L14.4752 4.23824C14.401 4.01642 14.2763 3.81486 14.1109 3.64946C13.9455 3.48406 13.7439 3.35934 13.5221 3.28512L12.5156 2.94918C12.4785 2.93633 12.4464 2.91224 12.4236 2.88027C12.4009 2.8483 12.3887 2.81004 12.3887 2.7708C12.3887 2.73156 12.4009 2.69329 12.4236 2.66132C12.4464 2.62935 12.4785 2.60526 12.5156 2.59241L13.5234 2.25647C13.9739 2.10673 14.3268 1.75387 14.4766 1.30335L14.8112 0.295536Z" fill="#64615A"/>
</g>
<defs>
<clipPath id="clip0_69_30">
<rect width="20.8333" height="20.8333" fill="white" transform="translate(0.666687 0.166748)"/>
</clipPath>
</defs>
</svg>
