<svg width="116" height="45" viewBox="0 0 116 45" fill="none" xmlns="http://www.w3.org/2000/svg">
<path d="M9.07927 6.10352e-05C10.7733 6.10352e-05 12.3384 0.433603 13.7762 1.29901C15.2125 2.1661 16.3223 3.31272 17.1023 4.73889H13.3343C12.1542 3.59729 10.7364 3.02648 9.08094 3.02648C7.42545 3.02648 5.97752 3.62072 4.79909 4.81087C3.61899 6.00101 3.0281 7.43388 3.0281 9.10778C3.0281 10.7817 3.61731 12.2112 4.79909 13.3896C5.97919 14.5697 7.40704 15.1606 9.08094 15.1606C10.0702 15.1606 10.9942 14.9413 11.8496 14.5045C12.7066 14.0676 13.4097 13.4666 13.9621 12.705H17.4455C16.7407 14.3421 15.6326 15.6695 14.1194 16.6872C12.6062 17.705 10.9256 18.2138 9.08094 18.2138C6.56841 18.2138 4.42748 17.325 2.65649 15.544C0.885496 13.7663 0 11.6203 0 9.10778C0 6.59525 0.885496 4.4493 2.65482 2.66994C4.42581 0.890579 6.56673 6.10352e-05 9.07927 6.10352e-05Z" fill="#05668D"/>
<path d="M36.8008 9.10772V18.2154H33.7744V15.8737C32.0619 17.4354 30.0348 18.2154 27.6931 18.2154C25.1805 18.2154 23.0346 17.3266 21.2552 15.5456C19.4758 13.7662 18.5853 11.6203 18.5853 9.10772C18.5853 6.59519 19.4742 4.44924 21.2552 2.66988C23.0362 0.890518 25.1822 0 27.6947 0C30.2073 0 32.3532 0.890518 34.1326 2.66988C35.9119 4.44924 36.8024 6.59519 36.8024 9.10772H36.8008ZM27.6931 3.02642C26.0175 3.02642 24.5896 3.62066 23.4112 4.81081C22.2311 6.00095 21.6419 7.43382 21.6419 9.10772C21.6419 10.7816 22.2311 12.2111 23.4112 13.3896C24.5913 14.5697 26.0191 15.1606 27.6931 15.1606C29.367 15.1606 30.7998 14.5714 31.99 13.3896C33.1784 12.2095 33.7744 10.7816 33.7744 9.10772C33.7744 7.43382 33.1835 5.97752 32.0034 4.79741C30.8233 3.61731 29.3854 3.02642 27.6931 3.02642Z" fill="#05668D"/>
<path d="M39.228 9.10772C39.228 6.59519 40.1135 4.44924 41.8828 2.66988C43.6538 0.890518 45.7947 0 48.3072 0V3.02642C46.6317 3.02642 45.2038 3.62066 44.0254 4.81081C42.8453 6.00095 42.2561 7.43382 42.2561 9.10772V18.2154H39.2296V9.10772H39.228Z" fill="#05668D"/>
<path d="M50.7193 2.66988C52.4987 0.890518 54.6446 0 57.1572 0C59.6697 0 61.8156 0.890518 63.595 2.66988C65.3744 4.44924 66.2649 6.59519 66.2649 9.10772C66.2649 9.58311 66.2163 10.0886 66.1226 10.6209H51.2767C51.6199 11.9534 52.333 13.0431 53.4177 13.8901C54.5023 14.7371 55.7494 15.1606 57.1572 15.1606C58.9265 15.1606 60.4012 14.5228 61.583 13.2473H65.2656C64.5039 14.7505 63.3958 15.9557 61.9395 16.8596C60.4832 17.7635 58.8897 18.2154 57.1572 18.2154C54.6446 18.2154 52.4987 17.3266 50.7193 15.5456C48.94 13.7662 48.0494 11.6203 48.0494 9.10772C48.0494 6.59519 48.9383 4.44924 50.7193 2.66988ZM51.2767 7.59451H63.0393C62.7162 6.26208 62.0065 5.16735 60.9117 4.31031C59.817 3.45327 58.5649 3.02642 57.1572 3.02642C55.7494 3.02642 54.4973 3.45494 53.4026 4.31031C52.3079 5.16735 51.5981 6.26208 51.2751 7.59451H51.2767Z" fill="#05668D"/>
<path d="M70.9619 2.65482C72.7412 0.883823 74.8872 0 77.3997 0C79.9123 0 82.0582 0.885496 83.8376 2.65482C85.6169 4.42413 86.5074 6.56673 86.5074 9.07927C86.5074 11.5918 85.6169 13.7612 83.8376 15.5322C82.0582 17.3015 79.9123 18.187 77.3997 18.187C75.078 18.187 73.0509 17.417 71.3184 15.8737V25.3814H68.292V9.07927C68.292 6.56673 69.1808 4.42581 70.9619 2.65482ZM81.6966 4.79574C80.5065 3.61564 79.0736 3.02475 77.3997 3.02475C75.7258 3.02475 74.2929 3.61564 73.1028 4.79574C71.9126 5.97585 71.3184 7.40369 71.3184 9.07759C71.3184 10.7515 71.9126 12.1844 73.1028 13.3745C74.2929 14.5647 75.7241 15.1589 77.3997 15.1589C79.0753 15.1589 80.5065 14.5647 81.6966 13.3745C82.8868 12.1844 83.481 10.7532 83.481 9.07759C83.481 7.40201 82.8851 5.97585 81.6966 4.79574Z" fill="#05668D"/>
<path d="M88.5914 9.10772C88.5914 6.59519 89.4769 4.44924 91.2462 2.66988C93.0172 0.890518 95.1582 0 97.6707 0V3.02642C95.9951 3.02642 94.5673 3.62066 93.3888 4.81081C92.2087 6.00095 91.6195 7.43382 91.6195 9.10772V18.2154H88.5931V9.10772H88.5914Z" fill="#05668D"/>
<path d="M100.454 2.66988C102.234 0.890518 104.38 0 106.892 0C109.405 0 111.551 0.890518 113.33 2.66988C115.11 4.44924 116 6.59519 116 9.10772C116 11.6203 115.11 13.7662 113.33 15.5456C111.551 17.3249 109.405 18.2154 106.892 18.2154C104.38 18.2154 102.234 17.3266 100.454 15.5456C98.6751 13.7662 97.7846 11.6203 97.7846 9.10772C97.7846 6.59519 98.6735 4.44924 100.454 2.66988ZM111.189 4.81081C109.999 3.62066 108.566 3.02642 106.892 3.02642C105.218 3.02642 103.786 3.62066 102.595 4.81081C101.405 6.00095 100.811 7.43382 100.811 9.10772C100.811 10.7816 101.405 12.2111 102.595 13.3896C103.786 14.5697 105.217 15.1606 106.892 15.1606C108.568 15.1606 109.999 14.5714 111.189 13.3896C112.378 12.2095 112.974 10.7816 112.974 9.10772C112.974 7.43382 112.378 6.00095 111.189 4.81081Z" fill="#05668D"/>
<path d="M57.9992 44.3686C43.8965 44.3686 31.0827 36.0392 25.353 23.1501C24.8843 22.0939 25.3597 20.8569 26.4142 20.3882C27.4705 19.9195 28.7058 20.3949 29.1762 21.4494C34.2347 32.8303 45.5486 40.1838 57.9992 40.1838C70.4497 40.1838 81.5694 32.9475 86.6882 21.7474C87.1687 20.6962 88.409 20.2342 89.4619 20.7146C90.5131 21.195 90.9751 22.437 90.4947 23.4883C87.6876 29.6298 83.2115 34.8373 77.5504 38.5484C71.7386 42.3565 64.9777 44.3702 58.0008 44.3702L57.9992 44.3686Z" fill="#3EDDCD"/>
</svg>
