<svg width="147" height="56" viewBox="0 0 147 56" fill="none" xmlns="http://www.w3.org/2000/svg">
<path d="M11.459 0C13.597 0 15.5724 0.547177 17.3871 1.63942C19.1998 2.73377 20.6005 4.18094 21.585 5.98091H16.8294C15.34 4.54009 13.5505 3.81967 11.4611 3.81967C9.37172 3.81967 7.54428 4.56966 6.05697 6.07176C4.56755 7.57385 3.82179 9.38228 3.82179 11.4949C3.82179 13.6076 4.56544 15.4118 6.05697 16.8991C7.54639 18.3885 9.34848 19.1343 11.4611 19.1343C12.7097 19.1343 13.8759 18.8575 14.9555 18.3061C16.0371 17.7547 16.9244 16.9963 17.6216 16.035H22.018C21.1286 18.1012 19.73 19.7765 17.8202 21.061C15.9104 22.3455 13.7893 22.9878 11.4611 22.9878C8.29004 22.9878 5.58796 21.8659 3.35278 19.6181C1.11759 17.3744 0 14.666 0 11.4949C0 8.32384 1.11759 5.61543 3.35066 3.36968C5.58585 1.12393 8.28793 0 11.459 0Z" fill="white"/>
<path d="M46.4464 11.4949V22.9899H42.6267V20.0343C40.4655 22.0054 37.9071 22.9899 34.9515 22.9899C31.7804 22.9899 29.072 21.868 26.8262 19.6202C24.5805 17.3744 23.4565 14.666 23.4565 11.4949C23.4565 8.32384 24.5784 5.61543 26.8262 3.36968C29.0741 1.12393 31.7825 0 34.9536 0C38.1247 0 40.8331 1.12393 43.0788 3.36968C45.3246 5.61543 46.4485 8.32384 46.4485 11.4949H46.4464ZM34.9515 3.81967C32.8367 3.81967 31.0346 4.56966 29.5473 6.07176C28.0579 7.57385 27.3142 9.38228 27.3142 11.4949C27.3142 13.6076 28.0579 15.4118 29.5473 16.8991C31.0367 18.3885 32.8388 19.1343 34.9515 19.1343C37.0641 19.1343 38.8726 18.3906 40.3747 16.8991C41.8746 15.4097 42.6267 13.6076 42.6267 11.4949C42.6267 9.38228 41.881 7.54428 40.3916 6.05486C38.9021 4.56544 37.0874 3.81967 34.9515 3.81967Z" fill="white"/>
<path d="M49.5098 11.4949C49.5098 8.32384 50.6274 5.61543 52.8604 3.36968C55.0956 1.12393 57.7977 0 60.9688 0V3.81967C58.854 3.81967 57.0519 4.56966 55.5646 6.07176C54.0752 7.57385 53.3316 9.38228 53.3316 11.4949V22.9899H49.5119V11.4949H49.5098Z" fill="white"/>
<path d="M64.0132 3.36968C66.259 1.12393 68.9674 0 72.1385 0C75.3096 0 78.018 1.12393 80.2637 3.36968C82.5095 5.61543 83.6334 8.32384 83.6334 11.4949C83.6334 12.0949 83.5722 12.7329 83.4538 13.4048H64.7167C65.1498 15.0864 66.0498 16.4618 67.4188 17.5308C68.7878 18.5998 70.3617 19.1343 72.1385 19.1343C74.3716 19.1343 76.2328 18.3294 77.7243 16.7195H82.3722C81.4109 18.6167 80.0123 20.1378 78.1743 21.2786C76.3363 22.4195 74.3251 22.9899 72.1385 22.9899C68.9674 22.9899 66.259 21.868 64.0132 19.6202C61.7675 17.3744 60.6436 14.666 60.6436 11.4949C60.6436 8.32384 61.7654 5.61543 64.0132 3.36968ZM64.7167 9.5851H79.5623C79.1546 7.90343 78.2588 6.52175 76.8772 5.44008C75.4955 4.3584 73.9152 3.81967 72.1385 3.81967C70.3617 3.81967 68.7815 4.36051 67.3998 5.44008C66.0181 6.52175 65.1224 7.90343 64.7146 9.5851H64.7167Z" fill="white"/>
<path d="M89.5616 3.35066C91.8073 1.11548 94.5157 0 97.6868 0C100.858 0 103.566 1.11759 105.812 3.35066C108.058 5.58374 109.182 8.28793 109.182 11.459C109.182 14.6301 108.058 17.3681 105.812 19.6033C103.566 21.8364 100.858 22.954 97.6868 22.954C94.7566 22.954 92.1982 21.9821 90.0116 20.0343V32.0341H86.1919V11.459C86.1919 8.28793 87.3137 5.58585 89.5616 3.35066ZM103.11 6.05274C101.608 4.56333 99.7995 3.81756 97.6868 3.81756C95.5742 3.81756 93.7657 4.56333 92.2637 6.05274C90.7616 7.54216 90.0116 9.34425 90.0116 11.4569C90.0116 13.5696 90.7616 15.378 92.2637 16.8801C93.7657 18.3822 95.5721 19.1322 97.6868 19.1322C99.8016 19.1322 101.608 18.3822 103.11 16.8801C104.612 15.378 105.362 13.5717 105.362 11.4569C105.362 9.34214 104.61 7.54216 103.11 6.05274Z" fill="white"/>
<path d="M111.812 11.4949C111.812 8.32384 112.93 5.61543 115.163 3.36968C117.398 1.12393 120.1 0 123.271 0V3.81967C121.156 3.81967 119.354 4.56966 117.867 6.07176C116.377 7.57385 115.634 9.38228 115.634 11.4949V22.9899H111.814V11.4949H111.812Z" fill="white"/>
<path d="M126.784 3.36968C129.03 1.12393 131.738 0 134.909 0C138.081 0 140.789 1.12393 143.035 3.36968C145.28 5.61543 146.404 8.32384 146.404 11.4949C146.404 14.666 145.28 17.3744 143.035 19.6202C140.789 21.8659 138.081 22.9899 134.909 22.9899C131.738 22.9899 129.03 21.868 126.784 19.6202C124.538 17.3744 123.415 14.666 123.415 11.4949C123.415 8.32384 124.536 5.61543 126.784 3.36968ZM140.333 6.07176C138.831 4.56966 137.022 3.81967 134.909 3.81967C132.797 3.81967 130.988 4.56966 129.486 6.07176C127.984 7.57385 127.234 9.38228 127.234 11.4949C127.234 13.6076 127.984 15.4118 129.486 16.8991C130.988 18.3885 132.795 19.1343 134.909 19.1343C137.024 19.1343 138.831 18.3906 140.333 16.8991C141.833 15.4097 142.585 13.6076 142.585 11.4949C142.585 9.38228 141.833 7.57385 140.333 6.07176Z" fill="white"/>
<path d="M73.2014 55.9978C55.4023 55.9978 39.23 45.4853 31.9984 29.2179C31.4068 27.8848 32.0068 26.3236 33.3378 25.732C34.6709 25.1405 36.23 25.7405 36.8237 27.0714C43.2081 41.4353 57.4875 50.7162 73.2014 50.7162C88.9153 50.7162 102.95 41.5832 109.41 27.4475C110.016 26.1207 111.582 25.5376 112.911 26.144C114.238 26.7503 114.821 28.3179 114.214 29.6446C110.671 37.396 105.022 43.9684 97.8772 48.6522C90.542 53.4584 82.009 56 73.2035 56L73.2014 55.9978Z" fill="#3EDDCD"/>
</svg>
