<svg width="24" height="23" viewBox="0 0 24 23" fill="none" xmlns="http://www.w3.org/2000/svg">
<g clip-path="url(#clip0_69_35)">
<path d="M5.37888 16.9798L5.37881 16.9797L5.37472 16.9829L3.45831 18.4923V8.74988C3.45831 8.61727 3.51099 8.49009 3.60476 8.39632C3.69853 8.30256 3.8257 8.24988 3.95831 8.24988H6.37081H6.49581V8.12488V6.87488V6.74988H6.37081H3.95831C3.42788 6.74988 2.91917 6.96059 2.5441 7.33566C2.16903 7.71074 1.95831 8.21944 1.95831 8.74988L1.95831 19.9999L1.95832 20.0009C1.95943 20.1402 1.99932 20.2764 2.0735 20.3943C2.14768 20.5122 2.25323 20.6071 2.37832 20.6684L2.37829 20.6684L2.38157 20.6699C2.50208 20.7247 2.63494 20.7466 2.76667 20.7335C2.8984 20.7203 3.0243 20.6725 3.13157 20.5949L3.1324 20.5943L6.3181 18.2499H14.6752C14.9286 18.2571 15.1808 18.2124 15.4162 18.1184C15.6522 18.0243 15.8663 17.8827 16.0454 17.7024C16.2244 17.5221 16.3645 17.3069 16.457 17.0703C16.5493 16.8343 16.5922 16.582 16.5833 16.3289V15.6249V15.4999H16.4583H15.2083H15.0833V15.6249V16.2499C15.0833 16.3825 15.0306 16.5097 14.9369 16.6034C14.8431 16.6972 14.7159 16.7499 14.5833 16.7499H5.83331C5.72799 16.7499 5.63575 16.7971 5.56546 16.8426C5.5216 16.8709 5.47249 16.9086 5.43176 16.9399C5.4115 16.9554 5.39331 16.9694 5.37888 16.9798Z" fill="#64615A" stroke="#64615A" stroke-width="0.25"/>
<path d="M20.2125 2.37488L20.2125 2.37495C20.7313 2.39225 21.223 2.61058 21.5838 2.98379C21.9446 3.35701 22.1461 3.85587 22.1458 4.37495M20.2125 2.37488L22.0208 4.37488M20.2125 2.37488H20.2083H9.58331C9.05288 2.37488 8.54417 2.58559 8.1691 2.96066C7.79403 3.33574 7.58331 3.84444 7.58331 4.37488V11.8749C7.58331 12.4053 7.79403 12.914 8.1691 13.2891C8.54417 13.6642 9.05288 13.8749 9.58331 13.8749H18.0092M20.2125 2.37488L20.2083 2.49988H9.58331C9.08603 2.49988 8.60912 2.69742 8.25749 3.04905C7.90586 3.40068 7.70831 3.8776 7.70831 4.37488V11.8749C7.70831 12.3722 7.90586 12.8491 8.25749 13.2007C8.60912 13.5523 9.08603 13.7499 9.58331 13.7499H18.0521M22.1458 4.37495L22.0208 4.37488M22.1458 4.37495V4.37488H22.0208M22.1458 4.37495V15.5749V15.5752C22.1454 15.7166 22.1051 15.855 22.0294 15.9744C21.9538 16.0938 21.8459 16.1894 21.7183 16.2502L21.7153 16.2517L21.7153 16.2516C21.5941 16.3054 21.4609 16.3261 21.3291 16.3116C21.1974 16.2971 21.0718 16.2479 20.9653 16.1691L20.9629 16.1674L20.9629 16.1674L18.0092 13.8749M22.0208 4.37488V15.5749C22.0205 15.6927 21.9869 15.808 21.9238 15.9075C21.8608 16.007 21.7709 16.0867 21.6646 16.1374C21.5636 16.1822 21.4526 16.1994 21.3428 16.1873C21.233 16.1752 21.1284 16.1343 21.0396 16.0686L18.0521 13.7499M18.0092 13.8749H18.0521V13.7499M18.0092 13.8749L17.9754 13.8486L18.0521 13.7499M20.7083 14.0814L18.7227 12.5326L18.7225 12.5324C18.5915 12.4308 18.4307 12.3754 18.265 12.3749H18.2646H9.58331C9.4507 12.3749 9.32353 12.3222 9.22976 12.2284C9.13599 12.1347 9.08331 12.0075 9.08331 11.8749V4.37488C9.08331 4.24227 9.13599 4.11509 9.22976 4.02132C9.32353 3.92756 9.4507 3.87488 9.58331 3.87488H20.2024C20.337 3.8884 20.4624 3.95003 20.5553 4.04856C20.6491 4.14794 20.7034 4.27802 20.7083 4.4145V14.0814Z" fill="#64615A" stroke="#64615A" stroke-width="0.25"/>
</g>
<defs>
<clipPath id="clip0_69_35">
<rect width="22.5" height="22.5" fill="white" transform="translate(0.833313 -0.000244141)"/>
</clipPath>
</defs>
</svg>
