<svg width="22" height="22" viewBox="0 0 22 22" fill="none" xmlns="http://www.w3.org/2000/svg">
<path d="M2.23829 8.77749C2.48246 8.53338 2.8136 8.39625 3.15886 8.39625C3.50413 8.39625 3.83526 8.53338 4.07943 8.77749L8.6836 13.3817L17.8893 4.17462C18.0102 4.05364 18.1538 3.95766 18.3117 3.89216C18.4697 3.82665 18.6391 3.79291 18.8101 3.79285C18.9811 3.79279 19.1505 3.82641 19.3085 3.89181C19.4665 3.9572 19.6102 4.05308 19.7311 4.17397C19.8521 4.29486 19.9481 4.4384 20.0136 4.59638C20.0791 4.75437 20.1128 4.92371 20.1129 5.09473C20.113 5.26576 20.0793 5.43512 20.0139 5.59316C19.9485 5.75119 19.8527 5.89479 19.7318 6.01577L8.6836 17.0639L2.23829 10.6186C1.99419 10.3745 1.85706 10.0433 1.85706 9.69806C1.85706 9.35279 1.99419 9.02166 2.23829 8.77749Z" fill="#64615A"/>
</svg>
