<svg width="92" height="91" viewBox="0 0 92 91" fill="none" xmlns="http://www.w3.org/2000/svg">
<rect x="0.5" width="91" height="91" rx="45.5" fill="#02445F"/>
<path d="M42.05 48.3H36.3V41.4H42.05V35.65H48.95V41.4H54.7V48.3H48.95V54.05H42.05V48.3ZM45.5 23L27.1 29.9V43.907C27.1 55.522 34.943 66.355 45.5 69C56.057 66.355 63.9 55.522 63.9 43.907V29.9L45.5 23ZM59.3 43.907C59.3 53.107 53.435 61.617 45.5 64.216C37.565 61.617 31.7 53.13 31.7 43.907V33.097L45.5 27.922L59.3 33.097V43.907Z" fill="#DEF5FF"/>
</svg>
