<svg width="22" height="26" viewBox="0 0 22 26" fill="none" xmlns="http://www.w3.org/2000/svg">
<path d="M10.8698 15.7186H10.9266C12.1454 15.7511 13.1204 16.7424 13.1204 17.9611C13.1204 19.0011 12.4135 19.8705 11.4548 20.1305V21.0405C11.4548 21.3655 11.1948 21.6255 10.8698 21.6255C10.5448 21.6255 10.2848 21.3655 10.2848 21.0405V20.1305C9.80743 20.002 9.38567 19.7199 9.08462 19.3279C8.78358 18.9358 8.62 18.4555 8.61914 17.9611C8.61914 17.6361 8.87914 17.3761 9.20414 17.3761C9.52914 17.3761 9.78914 17.6361 9.78914 17.9611C9.78914 18.5624 10.2685 19.0418 10.8616 19.0418C11.4548 19.0418 11.9423 18.5543 11.9423 17.9611C11.9423 17.368 11.4548 16.8805 10.8616 16.8805H10.8048C10.2203 16.8646 9.66498 16.6215 9.25687 16.2028C8.84876 15.7841 8.61998 15.2227 8.61914 14.638C8.61914 13.598 9.32602 12.7286 10.2848 12.4686V11.5586C10.2848 11.2336 10.5448 10.9736 10.8698 10.9736C11.1948 10.9736 11.4548 11.2336 11.4548 11.5586V12.4686C12.4135 12.7286 13.1204 13.598 13.1204 14.638C13.1204 14.963 12.8604 15.223 12.5354 15.223C12.2104 15.223 11.9504 14.963 11.9504 14.638C11.9504 14.0449 11.4629 13.5574 10.8698 13.5574C10.2766 13.5574 9.78914 14.0449 9.78914 14.638C9.78914 15.2311 10.2766 15.7186 10.8698 15.7186Z" fill="#365710"/>
<path d="M6.55725 4.14561L8.82088 6.79436L8.57631 7.06736C3.91744 8.11223 0.4375 12.273 0.4375 17.2472C0.4375 21.62 3.9865 25.169 8.35938 25.169H13.3725C17.7454 25.169 21.2944 21.6209 21.2944 17.248C21.3025 12.273 17.8226 8.11223 13.1637 7.06736C13.1828 6.89566 13.1518 6.7221 13.0743 6.56767L14.9999 4.36336L15.1243 4.17161C15.2694 3.855 15.3065 3.49947 15.2299 3.1597C15.1533 2.81993 14.9672 2.51474 14.7002 2.29105C14.4333 2.06737 14.1002 1.93759 13.7523 1.92166C13.4043 1.90574 13.0608 2.00456 12.7745 2.20292L12.0896 1.39042C11.9359 1.21848 11.7478 1.08085 11.5374 0.986487C11.327 0.892126 11.0991 0.843159 10.8685 0.842776C10.6379 0.842392 10.4098 0.890602 10.1991 0.984262C9.98839 1.07792 9.79978 1.21493 9.64556 1.38636L8.92813 2.18748C8.64257 1.985 8.29826 1.88224 7.94843 1.89511C7.59861 1.90797 7.26277 2.03575 6.99286 2.25867C6.72295 2.48158 6.53402 2.78723 6.45528 3.12831C6.37653 3.4694 6.41237 3.82694 6.55725 4.14561ZM9.64394 5.27092L8.26594 3.67842C8.58613 3.8324 8.9483 3.87605 9.29591 3.80256C9.64352 3.72907 9.95703 3.54257 10.1875 3.27217L10.8375 2.4288L11.559 3.28355C11.784 3.54516 12.0874 3.72707 12.4242 3.80218C12.7609 3.87729 13.1129 3.84158 13.4278 3.70036L12.0563 5.27092H9.64394ZM2.0625 17.2472C2.0625 12.3819 6.00475 8.43967 10.87 8.43967C15.7353 8.43967 19.6775 12.3819 19.6694 17.2455V17.2472C19.6687 18.917 19.0051 20.5183 17.8244 21.699C16.6436 22.8798 15.0423 23.5434 13.3725 23.544H8.35938C6.68954 23.5434 5.08828 22.8798 3.90753 21.699C2.72677 20.5183 2.06315 18.917 2.0625 17.2472Z" fill="#365710"/>
</svg>
