<svg width="24" height="24" viewBox="0 0 24 24" fill="none" xmlns="http://www.w3.org/2000/svg">
<path d="M18.1771 9.27051H16.3021M16.3021 9.27051H14.4271M16.3021 9.27051V7.39551M16.3021 9.27051V11.1455" stroke="#64615A" stroke-width="1.40625" stroke-linecap="round"/>
<path d="M12.5961 6.70924C12.5402 6.7533 12.4787 6.79009 12.4131 6.81857C12.3091 6.86376 12.1968 6.88709 12.0833 6.88709C11.9698 6.88709 11.8576 6.86376 11.7535 6.81857C11.6879 6.79008 11.6264 6.75328 11.5705 6.7092L11.5636 6.71564L11.4789 6.62505C11.4787 6.62482 11.4784 6.62458 11.4782 6.62435C9.52151 4.53239 7.52114 4.15215 6.11583 4.70256C4.707 5.25514 3.53644 6.88104 3.53644 9.56901C3.53644 10.6037 3.93462 11.7201 4.63022 12.868L4.69508 12.975L4.6887 12.9789C4.71581 13.0403 4.73541 13.1049 4.74697 13.1714C4.76592 13.2805 4.76282 13.3922 4.73785 13.5C4.71288 13.6079 4.66655 13.7096 4.60159 13.7992C4.53663 13.8888 4.45437 13.9645 4.35966 14.0218C4.26495 14.0791 4.15971 14.1168 4.05018 14.1327C3.94064 14.1486 3.82903 14.1425 3.72193 14.1145C3.61483 14.0865 3.51442 14.0374 3.42664 13.97C3.37298 13.9288 3.32471 13.8812 3.28281 13.8285L3.27733 13.8318L3.23414 13.7605C3.22637 13.7484 3.21891 13.7361 3.21176 13.7236C2.45377 12.4715 1.91211 11.0987 1.88155 9.69401H1.88019V9.56901V9.44401H1.88093C1.91764 6.35314 3.31674 4.02025 5.51177 3.16012L5.51182 3.1601C7.54389 2.36487 9.95791 2.94936 12.0827 4.89361C14.2076 2.94787 16.6214 2.36385 18.6539 3.16012C20.8499 4.01932 22.249 6.3522 22.2857 9.44213H22.2864V9.56713V9.69213H22.2851C22.2419 11.6763 21.1789 13.612 19.8814 15.2665C18.5709 16.9373 16.933 18.4345 15.5497 19.564L15.5506 19.5651L15.4537 19.6438C15.4089 19.6802 15.3646 19.7163 15.3207 19.752C14.2431 20.6292 13.4151 21.3032 12.2083 21.3468V21.349H12.0833H11.9583V21.3468C10.7524 21.3032 9.92543 20.6301 8.84899 19.7538C8.80444 19.7175 8.75947 19.6809 8.71402 19.644C7.71591 18.8398 6.76462 17.9781 5.86688 17.0631C5.85623 17.0528 5.84586 17.0423 5.8358 17.0314L5.77779 16.9723L5.78236 16.9678C5.7416 16.9141 5.70747 16.8554 5.68082 16.7931C5.63717 16.691 5.61449 16.5812 5.61414 16.4701C5.61379 16.3591 5.63577 16.2491 5.67878 16.1468C5.72178 16.0444 5.78494 15.9517 5.86448 15.8743C5.94402 15.7968 6.03832 15.7361 6.14179 15.6958C6.24525 15.6556 6.35576 15.6365 6.46675 15.6398C6.57773 15.6431 6.68692 15.6686 6.78782 15.7149L6.73566 15.8285L6.78782 15.7149C6.84943 15.7432 6.90717 15.7789 6.95984 15.8211L6.96365 15.8174L7.0122 15.8667C7.02607 15.8799 7.0395 15.8935 7.05246 15.9077C7.87684 16.7457 8.74711 17.5373 9.65924 18.2789L9.65931 18.2788L9.75616 18.3573L9.75644 18.3576L9.85369 18.436L9.8535 18.4362C10.454 18.9223 10.8531 19.2333 11.1795 19.4258C11.5162 19.6242 11.7694 19.6928 12.0833 19.6928C12.3972 19.6928 12.6504 19.624 12.987 19.4253C13.3273 19.2246 13.7462 18.895 14.3899 18.3731C14.3967 18.3676 14.4034 18.3621 14.4102 18.3566L14.4102 18.3566C14.4121 18.3551 14.414 18.3536 14.4159 18.352C15.7704 17.253 17.346 15.815 18.5774 14.2441C19.8261 12.651 20.6302 11.0362 20.6302 9.56713C20.6302 6.88006 19.4596 5.25329 18.0509 4.70165L18.0964 4.58526L18.0508 4.70165C16.6456 4.15122 14.6452 4.53231 12.6885 6.62425C12.6885 6.62428 12.6884 6.62432 12.6884 6.62435L12.5961 6.70924ZM12.5961 6.70924L12.603 6.71568L12.6878 6.62496M12.5961 6.70924L12.6878 6.62496M12.6878 6.62496C12.688 6.62477 12.6882 6.62458 12.6884 6.6244L12.6878 6.62496Z" fill="#64615A" stroke="#64615A" stroke-width="0.25"/>
</svg>
