<svg width="26" height="26" viewBox="0 0 26 26" fill="none" xmlns="http://www.w3.org/2000/svg">
<path d="M12.6667 13.3541C11.6998 13.3541 10.7724 13.7382 10.0887 14.422C9.40499 15.1057 9.02087 16.033 9.02087 17C9.02087 17.9669 9.40499 18.8942 10.0887 19.578C10.7724 20.2617 11.6998 20.6458 12.6667 20.6458C13.6336 20.6458 14.561 20.2617 15.2447 19.578C15.9284 18.8942 16.3125 17.9669 16.3125 17C16.3125 16.033 15.9284 15.1057 15.2447 14.422C14.561 13.7382 13.6336 13.3541 12.6667 13.3541ZM11.1042 17C11.1042 16.5856 11.2688 16.1881 11.5619 15.8951C11.8549 15.6021 12.2523 15.4375 12.6667 15.4375C13.0811 15.4375 13.4785 15.6021 13.7716 15.8951C14.0646 16.1881 14.2292 16.5856 14.2292 17C14.2292 17.4144 14.0646 17.8118 13.7716 18.1048C13.4785 18.3978 13.0811 18.5625 12.6667 18.5625C12.2523 18.5625 11.8549 18.3978 11.5619 18.1048C11.2688 17.8118 11.1042 17.4144 11.1042 17Z" fill="#64615A"/>
<path d="M18.4229 5.66236L15.1115 1.01965L2.93544 10.7467L2.26044 10.7394V10.7499H1.72919V23.2499H23.6042V10.7499H22.6021L20.6084 4.91757L18.4229 5.66236ZM20.4011 10.7499H9.95523L17.7354 8.09778L19.3209 7.59049L20.4011 10.7499ZM16.3646 6.36445L8.33335 9.10195L14.6938 4.0207L16.3646 6.36445ZM3.81252 19.2592V14.7384C4.25229 14.5832 4.65174 14.3315 4.98159 14.0019C5.31144 13.6722 5.56332 13.2729 5.71877 12.8332H19.6146C19.7699 13.2731 20.0217 13.6726 20.3516 14.0024C20.6815 14.3323 21.081 14.5841 21.5209 14.7394V19.2603C21.081 19.4156 20.6815 19.6674 20.3516 19.9973C20.0217 20.3271 19.7699 20.7267 19.6146 21.1665H5.72085C5.56479 20.7266 5.31248 20.3271 4.98233 19.9971C4.65218 19.6671 4.25252 19.4151 3.81252 19.2592Z" fill="#64615A"/>
</svg>
