<svg width="1915" height="2000" viewBox="0 0 1915 2000" fill="none" xmlns="http://www.w3.org/2000/svg">
<rect width="1914.46" height="2000" fill="#2B395F"/>
<path d="M958.742 1419.79C656.842 1419.79 382.532 1233.51 259.874 945.259C249.84 921.637 260.015 893.975 282.592 883.492C305.204 873.01 331.649 883.643 341.717 907.225C450.008 1161.75 692.209 1326.2 958.742 1326.2C1225.27 1326.2 1463.32 1164.37 1572.9 913.89C1583.19 890.38 1609.74 880.048 1632.28 890.793C1654.78 901.535 1664.67 929.312 1654.39 952.822C1594.29 1090.17 1498.47 1206.63 1377.28 1289.63C1252.87 1374.79 1108.13 1419.82 958.776 1419.82L958.742 1419.79Z" fill="#F2C143"/>
</svg>
