<svg xmlns="http://www.w3.org/2000/svg" xmlns:xlink="http://www.w3.org/1999/xlink" width="500" zoomAndPan="magnify" viewBox="0 0 375 374.999991" height="500" preserveAspectRatio="xMidYMid meet" version="1.0"><defs><g/></defs><rect x="-37.5" width="450" fill="#ffffff" y="-37.499999" height="449.999989" fill-opacity="1"/><rect x="-37.5" width="450" fill="#ffffff" y="-37.499999" height="449.999989" fill-opacity="1"/><g fill="#5ce1e6" fill-opacity="1"><g transform="translate(132.62342, 236.249984)"><g><path d="M 104.75 0 L 24.9375 0 C 21.28125 0 17.929688 -0.890625 14.890625 -2.671875 C 11.859375 -4.460938 9.445312 -6.875 7.65625 -9.90625 C 5.875 -12.945312 4.984375 -16.296875 4.984375 -19.953125 L 4.984375 -79.8125 C 4.984375 -83.46875 5.875 -86.8125 7.65625 -89.84375 C 9.445312 -92.882812 11.859375 -95.296875 14.890625 -97.078125 C 17.929688 -98.867188 21.28125 -99.765625 24.9375 -99.765625 L 104.75 -99.765625 L 104.75 -79.8125 L 24.9375 -79.8125 L 24.9375 -19.953125 L 104.75 -19.953125 Z M 104.75 0 "/></g></g></g></svg>
