<svg width="64" height="64" viewBox="0 0 64 64" fill="none" xmlns="http://www.w3.org/2000/svg">
  <!-- Background circle -->
  <circle cx="32" cy="32" r="32" fill="#00B4A6"/>
  <!-- Letter C -->
  <path d="M24 18C28 18 31.5 19.5 34 22.5C34 22.5 34 22.5 34 22.5L29 22.5C27.5 20.5 25.8 19.5 24 19.5C22.2 19.5 20.5 20.3 19.2 21.6C17.9 22.9 17.1 24.6 17.1 26.4C17.1 28.2 17.9 29.9 19.2 31.2C20.5 32.5 22.2 33.3 24 33.3C25.8 33.3 27.5 32.3 29 30.3L34 30.3C31.5 33.3 28 34.8 24 34.8C20.5 34.8 17.3 33.4 14.9 31C12.5 28.6 11.1 25.4 11.1 21.9C11.1 18.4 12.5 15.2 14.9 12.8C17.3 10.4 20.5 9 24 9C27.5 9 30.7 10.4 33.1 12.8C33.1 12.8 33.1 12.8 33.1 12.8V18Z" fill="white" transform="translate(5,8) scale(1.2)"/>
  <!-- Decorative curve at bottom -->
  <path d="M8 48C8 40 16 32 32 32C48 32 56 40 56 48" stroke="#ffffff" stroke-width="3" fill="none" opacity="0.7"/>
</svg>