<svg width="1447" height="286" viewBox="0 0 1447 286" fill="none" xmlns="http://www.w3.org/2000/svg">
<g clip-path="url(#clip0_2344_5458)">
<rect width="1447" height="286" fill="#111111" fill-opacity="0.6"/>
<g style="mix-blend-mode:soft-light">
<path d="M724.979 333.977C529.516 333.977 351.917 218.84 272.502 40.674C266.006 26.0737 272.595 8.97437 287.211 2.49561C301.851 -3.98315 318.973 2.58815 325.492 17.1654C395.603 174.484 552.414 276.131 724.979 276.131C897.543 276.131 1051.66 176.103 1122.61 21.284C1129.27 6.75307 1146.46 0.366866 1161.05 7.0076C1175.62 13.6483 1182.03 30.8171 1175.37 45.348C1136.46 130.243 1074.42 202.227 995.959 253.524C915.407 306.164 821.701 334 725.002 334L724.979 333.977Z" fill="white" fill-opacity="0.6"/>
</g>
</g>
<defs>
<clipPath id="clip0_2344_5458">
<rect width="1447" height="286" fill="white"/>
</clipPath>
</defs>
</svg>
