<svg width="20" height="20" viewBox="0 0 20 20" fill="none" xmlns="http://www.w3.org/2000/svg">
<path d="M9.99935 18.9587C9.34935 18.9587 8.71602 18.6253 8.28268 18.042L7.44102 16.917C7.26602 16.6837 7.03268 16.5503 6.78268 16.5337C6.53268 16.5253 6.28268 16.6337 6.08268 16.842L5.60768 16.417L6.06602 16.842C4.86602 18.1253 3.94102 18.0253 3.49935 17.8503C3.04935 17.6753 2.29102 17.1003 2.29102 15.2503V5.86699C2.29102 2.16699 3.35768 1.04199 6.84935 1.04199H13.1493C16.641 1.04199 17.7077 2.16699 17.7077 5.86699V15.2503C17.7077 17.092 16.9493 17.667 16.4993 17.8503C16.0577 18.0253 15.141 18.1253 13.9327 16.842C13.7327 16.6253 13.491 16.5087 13.2243 16.5337C12.9743 16.5503 12.7327 16.6837 12.5577 16.917L11.716 18.042C11.2827 18.6253 10.6493 18.9587 9.99935 18.9587ZM6.73268 15.2753C6.76602 15.2753 6.80768 15.2753 6.84102 15.2753C7.45768 15.3087 8.04102 15.6337 8.43268 16.1587L9.27435 17.2837C9.68268 17.8253 10.3077 17.8253 10.716 17.2837L11.5577 16.1587C11.9577 15.6337 12.5327 15.3087 13.1577 15.2753C13.7743 15.242 14.391 15.5003 14.841 15.9837C15.4743 16.6587 15.891 16.742 16.0327 16.6837C16.2327 16.6003 16.4493 16.117 16.4493 15.2503V5.86699C16.4493 2.85866 15.9243 2.29199 13.141 2.29199H6.84935C4.06602 2.29199 3.54102 2.85866 3.54102 5.86699V15.2503C3.54102 16.1253 3.75768 16.6087 3.95768 16.6837C4.09935 16.742 4.51602 16.6587 5.14935 15.9837C5.59935 15.5253 6.15768 15.2753 6.73268 15.2753Z" fill="#8C8C8C"/>
<path d="M13.3327 6.45801H6.66602C6.32435 6.45801 6.04102 6.17467 6.04102 5.83301C6.04102 5.49134 6.32435 5.20801 6.66602 5.20801H13.3327C13.6743 5.20801 13.9577 5.49134 13.9577 5.83301C13.9577 6.17467 13.6743 6.45801 13.3327 6.45801Z" fill="#8C8C8C"/>
<path d="M12.5 9.79199H7.5C7.15833 9.79199 6.875 9.50866 6.875 9.16699C6.875 8.82533 7.15833 8.54199 7.5 8.54199H12.5C12.8417 8.54199 13.125 8.82533 13.125 9.16699C13.125 9.50866 12.8417 9.79199 12.5 9.79199Z" fill="#8C8C8C"/>
</svg>
