<svg width="58" height="58" viewBox="0 0 58 58" fill="none" xmlns="http://www.w3.org/2000/svg">
<g clip-path="url(#clip0_1210_1335)">
<rect x="0.5" y="0.5" width="57" height="57" rx="28.5" fill="#403009"/>
<g filter="url(#filter0_f_1210_1335)">
<circle cx="4.5" cy="38.5" r="24" fill="#ECB122"/>
</g>
<g filter="url(#filter1_f_1210_1335)">
<circle cx="33" cy="18" r="26.5" fill="#D26C08"/>
</g>
<path d="M44.5207 29.1823C34.5795 32.1543 32.1686 34.5638 29.1948 44.4993C26.221 34.5638 23.8102 32.1543 13.8689 29.1823C23.8102 26.2102 26.221 23.8007 29.1948 13.8652C32.1686 23.8007 34.5795 26.2102 44.5207 29.1823Z" fill="white"/>
<path d="M36.3914 40.4367C39.0279 39.6487 39.667 39.0094 40.4561 36.3744C41.2446 39.0094 41.8842 39.6481 44.5208 40.4367C41.8842 41.2248 41.2452 41.864 40.4561 44.499C39.6676 41.864 39.0279 41.2254 36.3914 40.4367Z" fill="white"/>
</g>
<defs>
<filter id="filter0_f_1210_1335" x="-31.5" y="2.5" width="72" height="72" filterUnits="userSpaceOnUse" color-interpolation-filters="sRGB">
<feFlood flood-opacity="0" result="BackgroundImageFix"/>
<feBlend mode="normal" in="SourceGraphic" in2="BackgroundImageFix" result="shape"/>
<feGaussianBlur stdDeviation="6" result="effect1_foregroundBlur_1210_1335"/>
</filter>
<filter id="filter1_f_1210_1335" x="-5.5" y="-20.5" width="77" height="77" filterUnits="userSpaceOnUse" color-interpolation-filters="sRGB">
<feFlood flood-opacity="0" result="BackgroundImageFix"/>
<feBlend mode="normal" in="SourceGraphic" in2="BackgroundImageFix" result="shape"/>
<feGaussianBlur stdDeviation="6" result="effect1_foregroundBlur_1210_1335"/>
</filter>
<clipPath id="clip0_1210_1335">
<rect x="0.5" y="0.5" width="57" height="57" rx="28.5" fill="white"/>
</clipPath>
</defs>
</svg>
