<svg width="14" height="14" viewBox="0 0 14 14" fill="none" xmlns="http://www.w3.org/2000/svg">
<path d="M9.76008 0.973362L3.74008 2.97336C-0.306589 4.3267 -0.306589 6.53336 3.74008 7.88003L5.52674 8.47336L6.12008 10.26C7.46675 14.3067 9.68008 14.3067 11.0267 10.26L13.0334 4.2467C13.9267 1.5467 12.4601 0.0733619 9.76008 0.973362ZM9.97341 4.56003L7.44008 7.1067C7.34008 7.2067 7.21341 7.25336 7.08675 7.25336C6.96008 7.25336 6.83341 7.2067 6.73341 7.1067C6.54008 6.91336 6.54008 6.59336 6.73341 6.40003L9.26674 3.85336C9.46008 3.66003 9.78008 3.66003 9.97341 3.85336C10.1667 4.0467 10.1667 4.3667 9.97341 4.56003Z" fill="#71717A"/>
</svg>
